<?xml version="1.0" encoding="UTF-8" standalone="no"?>
<!-- Created with Inkscape (http://www.inkscape.org/) -->

<svg
   xmlns:dc="http://purl.org/dc/elements/1.1/"
   xmlns:cc="http://creativecommons.org/ns#"
   xmlns:rdf="http://www.w3.org/1999/02/22-rdf-syntax-ns#"
   xmlns:svg="http://www.w3.org/2000/svg"
   xmlns="http://www.w3.org/2000/svg"
   xmlns:sodipodi="http://sodipodi.sourceforge.net/DTD/sodipodi-0.dtd"
   xmlns:inkscape="http://www.inkscape.org/namespaces/inkscape"
   width="300"
   height="300"
   viewBox="0 0 300 300"
   id="svg2"
   version="1.1"
   inkscape:version="0.91 r13725"
   sodipodi:docname="AnyConv.com__viam_auv2000_logo_full.svg">
  <defs
     id="defs4" />
  <sodipodi:namedview
     id="base"
     pagecolor="#ffffff"
     bordercolor="#666666"
     borderopacity="1.0"
     inkscape:pageopacity="0.0"
     inkscape:pageshadow="2"
     inkscape:zoom="0.35"
     inkscape:cx="375"
     inkscape:cy="177.14286"
     inkscape:document-units="px"
     inkscape:current-layer="g3800"
     showgrid="false"
     units="px"
     inkscape:window-width="1301"
     inkscape:window-height="744"
     inkscape:window-x="65"
     inkscape:window-y="24"
     inkscape:window-maximized="1" />
  <metadata
     id="metadata7">
    <rdf:RDF>
      <cc:Work
         rdf:about="">
        <dc:format>image/svg+xml</dc:format>
        <dc:type
           rdf:resource="http://purl.org/dc/dcmitype/StillImage" />
        <dc:title></dc:title>
      </cc:Work>
    </rdf:RDF>
  </metadata>
  <g
     inkscape:label="Layer 1"
     inkscape:groupmode="layer"
     id="layer1"
     transform="translate(0,-752.36216)">
    <g
       id="g3800"
       transform="translate(-1192.8571,828.07645)">
      <path
         id="path3662"
         d="m 1488.4286,57.857143 c -2.473,-3.53 -1.599,-8.742 -2.449,-13 -1.821,-9.123 -4.682,-18.477 -8.412,-27 -15.511,-35.4433 -44.709,-65.1178 -81.139,-78.936 -17.527,-6.6482 -34.524,-8.4744 -53,-8.11802 -23.21,0.44773 -43.673,2.91877 -65,13.31322 -62.0886,30.2616 -93.7465,104.8468 -75.0911,170.740797 27.8149,98.246 155.9101,139.544 234.0521,71.565 26.152,-22.751 44.737,-54.044 49.767,-88.564997 1.924,-13.201 -1.132,-27.045 1.272,-40 z"
         style="fill:#4b2c6d;stroke:none"
         inkscape:connector-curvature="0" />
      <path
         id="path3664"
         d="m 1327.4286,-70.142857 0,1 7,0 -7,-1 z"
         style="fill:#002050;stroke:none"
         inkscape:connector-curvature="0" />
      <path
         id="path3666"
         d="m 1337.4286,-70.142857 0,1 11,0 -11,-1 z"
         style="fill:#143952;stroke:none"
         inkscape:connector-curvature="0" />
      <path
         id="path3668"
         d="m 1352.4286,-70.142857 0,1 6,0 -6,-1 z"
         style="fill:#002050;stroke:none"
         inkscape:connector-curvature="0" />
      <path
         id="path3670"
         d="m 1319.4286,-69.142857 0,1 5,0 -5,-1 z"
         style="fill:#102b51;stroke:none"
         inkscape:connector-curvature="0" />
      <path
         id="path3672"
         d="m 1362.4286,-69.142857 0,1 5,0 -5,-1 z"
         style="fill:#002c56;stroke:none"
         inkscape:connector-curvature="0" />
      <path
         id="path3674"
         d="m 1254.4325,-24.490057 c -17.697,5.6163 -7.8627,33.2961999 9.9961,27.6943999 18.4117,-5.7751 8.2189,-33.4751999 -9.9961,-27.6943999 z"
         style="fill:#4d707d;stroke:none"
         inkscape:connector-curvature="0" />
      <path
         id="path3676"
         d="m 1295.4286,-20.142857 0,1 9,0 -9,-1 z"
         style="fill:#194356;stroke:none"
         inkscape:connector-curvature="0" />
      <path
         id="path3678"
         d="m 1296.0316,-17.971557 c -2.203,1.3339 -0.28,4.9981 2.079,3.6574 2.426,-1.3787 0.234,-5.0584 -2.079,-3.6574 z"
         style="fill:#1897b3;stroke:none"
         inkscape:connector-curvature="0" />
      <path
         id="path3680"
         d="m 1299.4286,-19.142857 -4,6 0,1 c 14.393,0.0413 11,11.7427999 11,23 l 7,0 c 0,-13.2795001 3.842,-29.9488 -14,-30 z"
         style="fill:#0c222d;stroke:none"
         inkscape:connector-curvature="0" />
      <path
         id="path3682"
         d="m 1313.4286,-9.142857 0,20 1,0 -1,-20 z"
         style="fill:#194356;stroke:none"
         inkscape:connector-curvature="0" />
      <path
         id="path3684"
         d="m 1269.444,8.6140429 c -10.6815,3.9198001 -4.5308,20.5151001 5.9661,16.4971001 10.3973,-3.98 4.4759,-20.3289001 -5.9661,-16.4971001 z"
         style="fill:#4d707d;stroke:none"
         inkscape:connector-curvature="0" />
      <path
         id="path3686"
         d="m 1354.4286,43.857143 c -0.633,-7.25 -5.812,-27.9596 -12.275,-31.9722 -6.113,-3.7953001 -20.641,-1.0278 -27.725,-1.0278 -5.101,0 -17.541,-2.2518001 -21.3966,1.6034 -2.8754,2.8753 -1.6034,9.7025 -1.6034,13.3966 0,4.125 -1.6623,13 1.0278,16.397 1.8632,2.352 6.3552,1.602 8.9722,1.603 l 23,0 30,0 z"
         style="fill:#efc949;stroke:none"
         inkscape:connector-curvature="0" />
      <path
         id="path3688"
         d="m 1290.4286,13.857143 0,31 1,0 -1,-31 z"
         style="fill:#4f5e62;stroke:none"
         inkscape:connector-curvature="0" />
      <path
         id="path3690"
         d="m 1349.7616,28.524143 0.334,0.666 -0.334,-0.666 z"
         style="fill:#878154;stroke:none"
         inkscape:connector-curvature="0" />
      <path
         id="path3692"
         d="m 1308.4286,29.857143 0,4 40,0 0,-4 -40,0 z"
         style="fill:#9c7808;stroke:none"
         inkscape:connector-curvature="0" />
      <path
         id="path3694"
         d="m 1354.4286,41.857143 -17,2 -46,-1 0,5 65,0 -2,-6 z"
         style="fill:#d9b541;stroke:none"
         inkscape:connector-curvature="0" />
      <path
         id="path3696"
         d="m 1273.4286,46.857143 0,1 17,0 -17,-1 m 84,0 0,1 26,0 -26,-1 z"
         style="fill:#003d5a;stroke:none"
         inkscape:connector-curvature="0" />
      <path
         id="path3698"
         d="m 1272.4286,48.296143 c -45.458,7.1 -59.0614,67.701997 -20,92.860997 13.4587,8.669 29.7466,6.7 45,6.7 32.216,0 68.356,4.532 100,-1.808 33.346,-6.681 68.077,-43.677 37.96,-75.190997 -4.442,-4.648 -9.307,-8.602 -14.96,-11.689 -29.081,-15.879 -65.084,-11.312 -97,-11.312 -16.522,0 -34.6736,-2.111 -51,0.439 z"
         style="fill:#efc949;stroke:none"
         inkscape:connector-curvature="0" />
      <path
         id="path3700"
         d="m 1380.4286,47.857143 0,1 7,0 -7,-1 z"
         style="fill:#878154;stroke:none"
         inkscape:connector-curvature="0" />
      <path
         id="path3702"
         d="m 1394.4286,49.857143 0,1 3,0 -3,-1 z"
         style="fill:#a89552;stroke:none"
         inkscape:connector-curvature="0" />
      <path
         id="path3704"
         d="m 1400.0956,51.190143 0.666,0.334 -0.666,-0.334 z"
         style="fill:#878154;stroke:none"
         inkscape:connector-curvature="0" />
      <path
         id="path3706"
         d="m 1199.4286,51.857143 0,5 1,0 -1,-5 z"
         style="fill:#0c234e;stroke:none"
         inkscape:connector-curvature="0" />
      <path
         id="path3708"
         d="m 1408.4286,52.857143 0,1 4,1 0,-1 -4,-1 z"
         style="fill:#003d5a;stroke:none"
         inkscape:connector-curvature="0" />
      <path
         id="path3710"
         d="m 1486.4286,52.857143 0,5 1,0 -1,-5 z"
         style="fill:#102251;stroke:none"
         inkscape:connector-curvature="0" />
      <path
         id="path3712"
         d="m 1198.4286,59.857143 0,9 1,0 -1,-9 z"
         style="fill:#0d284e;stroke:none"
         inkscape:connector-curvature="0" />
      <path
         id="path3714"
         d="m 1487.4286,59.857143 0,9 1,0 -1,-9 z"
         style="fill:#101c51;stroke:none"
         inkscape:connector-curvature="0" />
      <path
         id="path3716"
         d="m 1450.4286,64.857143 c -4.641,6.818 -7.428,22.862 1,28 l -1,-28 z"
         style="fill:#efc949;stroke:none"
         inkscape:connector-curvature="0" />
      <path
         id="path3718"
         d="m 1451.4286,64.857143 0,28 1,0 -1,-28 z"
         style="fill:#63695f;stroke:none"
         inkscape:connector-curvature="0" />
      <path
         id="path3720"
         d="m 1445.4286,71.857143 1,22 1,0 -2,-22 z"
         style="fill:#003d5a;stroke:none"
         inkscape:connector-curvature="0" />
      <path
         id="path3722"
         d="m 1278.4286,80.415143 c -22.1773,5.782 -13.574,40.280997 9,34.909997 22.352,-5.319 13.451,-40.763997 -9,-34.909997 m 51,0 c -22.178,5.781 -13.574,40.280997 9,34.909997 22.374,-5.324 13.4,-40.748997 -9,-34.909997 m 51,0 c -22.078,5.755 -13.602,40.286997 9,34.909997 22.293,-5.305 13.162,-40.686997 -9,-34.909997 z"
         style="fill:#9c7808;stroke:none"
         inkscape:connector-curvature="0" />
      <path
         id="path3724"
         d="m 1198.4286,80.857143 0,9 1,0 -1,-9 z"
         style="fill:#002258;stroke:none"
         inkscape:connector-curvature="0" />
      <path
         id="path3726"
         d="m 1487.4286,80.857143 0,9 1,0 -1,-9 z"
         style="fill:#081d59;stroke:none"
         inkscape:connector-curvature="0" />
      <path
         id="path3728"
         d="m 1278.4294,84.561143 c -17.3287,5.805 -7.6757,33.197997 9.9984,26.401997 16.4538,-6.326 6.5578,-31.948997 -9.9984,-26.401997 z"
         style="fill:#1897b3;stroke:none"
         inkscape:connector-curvature="0" />
      <path
         id="path3730"
         d="m 1286.0953,84.190143 0.6666,0.334 -0.6666,-0.334 z"
         style="fill:#7a7b78;stroke:none"
         inkscape:connector-curvature="0" />
      <path
         id="path3732"
         d="m 1329.4296,84.561143 c -17.3,5.796 -7.769,33.225997 9.998,26.401997 15.911,-6.11 6.556,-31.948997 -9.998,-26.401997 z"
         style="fill:#1897b3;stroke:none"
         inkscape:connector-curvature="0" />
      <path
         id="path3734"
         d="m 1337.0956,84.190143 0.666,0.334 -0.666,-0.334 z"
         style="fill:#7a7b78;stroke:none"
         inkscape:connector-curvature="0" />
      <path
         id="path3736"
         d="m 1380.4296,84.561143 c -17.3,5.796 -7.766,33.232997 9.998,26.401997 16.731,-6.433 6.702,-31.997997 -9.998,-26.401997 z"
         style="fill:#1897b3;stroke:none"
         inkscape:connector-curvature="0" />
      <path
         id="path3738"
         d="m 1388.0956,84.190143 0.666,0.334 -0.666,-0.334 z"
         style="fill:#7a7b78;stroke:none"
         inkscape:connector-curvature="0" />
      <path
         id="path3740"
         d="m 1444.7616,85.524143 0.334,0.666 -0.334,-0.666 z"
         style="fill:#878154;stroke:none"
         inkscape:connector-curvature="0" />
      <path
         id="path3742"
         d="m 1228.4286,87.857143 0,4 1,0 -1,-4 z"
         style="fill:#003d5a;stroke:none"
         inkscape:connector-curvature="0" />
      <path
         id="path3744"
         d="m 1463.4286,87.857143 0,1 5,0 -5,-1 z"
         style="fill:#5a8c89;stroke:none"
         inkscape:connector-curvature="0" />
      <path
         id="path3746"
         d="m 1445.4286,88.857143 0,3 1,0 -1,-3 z"
         style="fill:#a89552;stroke:none"
         inkscape:connector-curvature="0" />
      <path
         id="path3748"
         d="m 1463.4286,95.857143 c -10.503,1.753 2.018,11.502997 1,1 13.756,-2.194 -4.213,-14.182 -1,-1 z"
         style="fill:#9ccce5;stroke:none"
         inkscape:connector-curvature="0" />
      <path
         id="path3750"
         d="m 1401.4286,89.857143 c 2.189,17.317997 -6.15,27.255997 -24,24.999997 l 0,1 c 16.324,5.96 37.743,-8.97 24,-25.999997 m -101,2 c 0,16.622997 -8.1408,25.130997 -25,22.999997 l 0,1 c 14.6669,5.355 36.852,-6.945 25,-23.999997 m 51,0 c 0,16.622997 -8.141,25.130997 -25,22.999997 l 0,1 c 14.498,5.293 37.575,-7.101 25,-23.999997 z"
         style="fill:#c7a132;stroke:none"
         inkscape:connector-curvature="0" />
      <path
         id="path3752"
         d="m 1228.4286,92.857143 0,10.999997 1,0 -1,-10.999997 z"
         style="fill:#878154;stroke:none"
         inkscape:connector-curvature="0" />
      <path
         id="path3754"
         d="m 1455.0316,94.014143 c -1.733,1.157 0.061,3.844 1.794,2.686 1.733,-1.157 -0.061,-3.844 -1.794,-2.686 z"
         style="fill:#9ccce5;stroke:none"
         inkscape:connector-curvature="0" />
      <path
         id="path3756"
         d="m 1296.4286,93.857143 0,4 1,0 -1,-4 m 23,0 0,7.999997 1,0 -1,-7.999997 m 51,0 0,6 1,0 -1,-6 z"
         style="fill:#5a8c89;stroke:none"
         inkscape:connector-curvature="0" />
      <path
         id="path3758"
         d="m 1446.4286,93.857143 0,6.999997 1,0 -1,-6.999997 z"
         style="fill:#878154;stroke:none"
         inkscape:connector-curvature="0" />
      <path
         id="path3760"
         d="m 1268.4286,94.857143 0,5.999997 1,0 -1,-5.999997 m 79,0 0,6.999997 1,0 -1,-6.999997 z"
         style="fill:#5a8c89;stroke:none"
         inkscape:connector-curvature="0" />
      <path
         id="path3762"
         d="m 1418.4286,95.857143 0,3 27,-1 c -6.065,-4.595 -19.55,-2 -27,-2 z"
         style="fill:#9c7808;stroke:none"
         inkscape:connector-curvature="0" />
      <path
         id="path3764"
         d="m 1469.7466,97.889143 c -5.006,3.232997 0.087,11.996997 5.364,8.769997 5.257,-3.215 0.249,-12.393997 -5.364,-8.769997 z"
         style="fill:#9ccce5;stroke:none"
         inkscape:connector-curvature="0" />
      <path
         id="path3766"
         d="m 1477.4286,99.857143 0,3.999997 1,0 -1,-3.999997 z"
         style="fill:#739aaf;stroke:none"
         inkscape:connector-curvature="0" />
      <path
         id="path3768"
         d="m 1449.4286,101.85714 c -3.842,8.232 -5.348,21.215 2,28 l 0,-28 -2,0 z"
         style="fill:#efc949;stroke:none"
         inkscape:connector-curvature="0" />
      <path
         id="path3770"
         d="m 1451.4286,101.85714 0,28 1,0 -1,-28 z"
         style="fill:#63695f;stroke:none"
         inkscape:connector-curvature="0" />
      <path
         id="path3772"
         d="m 1446.4286,102.85714 -1,20 1,0 2,-20 -2,0 z"
         style="fill:#003d5a;stroke:none"
         inkscape:connector-curvature="0" />
      <path
         id="path3774"
         d="m 1445.4286,104.85714 0,3 1,0 -1,-3 z"
         style="fill:#a89552;stroke:none"
         inkscape:connector-curvature="0" />
      <path
         id="path3776"
         d="m 1230.4286,113.85714 1,4 1,0 -2,-4 z"
         style="fill:#003d5a;stroke:none"
         inkscape:connector-curvature="0" />
      <path
         id="path3778"
         d="m 1446.4286,120.85714 0,3 1,0 -1,-3 m 1.333,4.667 0.334,0.666 -0.334,-0.666 z"
         style="fill:#878154;stroke:none"
         inkscape:connector-curvature="0" />
      <path
         id="path3780"
         d="m 1432.4286,129.85714 4,-4 -4,4 z"
         style="fill:#08425b;stroke:none"
         inkscape:connector-curvature="0" />
      <path
         id="path3782"
         d="m 1266.4286,146.85714 0,1 3,0 -3,-1 m 122,0 0,1 4,0 -4,-1 z"
         style="fill:#878154;stroke:none"
         inkscape:connector-curvature="0" />
      <path
         id="path3784"
         d="m 1267.4286,147.85714 0,1 4,0 -4,-1 z"
         style="fill:#08425b;stroke:none"
         inkscape:connector-curvature="0" />
      <path
         id="path3786"
         d="m 1273.4286,147.85714 0,1 110,0 -33,-1 -77,0 z"
         style="fill:#a89552;stroke:none"
         inkscape:connector-curvature="0" />
      <path
         id="path3788"
         d="m 1386.4286,147.85714 0,1 5,0 -5,-1 z"
         style="fill:#003d5a;stroke:none"
         inkscape:connector-curvature="0" />
      <path
         id="path3790"
         d="m 1273.4286,148.85714 0,1 110,0 -33,-1 -77,0 z"
         style="fill:#08425b;stroke:none"
         inkscape:connector-curvature="0" />
      <path
         id="path3792"
         d="m 1329.4286,218.85714 0,1 28,0 -28,-1 z"
         style="fill:#350a65;stroke:none"
         inkscape:connector-curvature="0" />
    </g>
  </g>
</svg>
